<svg width="203" height="60" viewBox="0 0 203 60" fill="none" xmlns="http://www.w3.org/2000/svg">
<g clip-path="url(#clip0_75_176)">
<path d="M194.997 60.0001H7.50377C3.37881 60.0001 0.00390625 56.6252 0.00390625 52.5002V7.50108C0.00390625 3.37613 3.37881 0.0012207 7.50377 0.0012207H194.997C199.122 0.0012207 202.497 3.37613 202.497 7.50108V52.5002C202.497 56.6252 199.122 60.0001 194.997 60.0001Z" fill="#100F0D"/>
<path d="M194.997 0.0012207H7.50377C3.37881 0.0012207 0.00390625 3.37613 0.00390625 7.50108V52.5002C0.00390625 56.6252 3.37881 60.0001 7.50377 60.0001H194.997C199.122 60.0001 202.497 56.6252 202.497 52.5002V7.50108C202.497 3.37613 199.122 0.0012207 194.997 0.0012207ZM194.997 1.20059C198.471 1.20059 201.297 4.02717 201.297 7.50108V52.5002C201.297 55.9741 198.471 58.8007 194.997 58.8007H7.50377C4.02986 58.8007 1.20451 55.9741 1.20451 52.5002V7.50108C1.20451 4.02717 4.02986 1.20059 7.50377 1.20059H194.997Z" fill="#A2A2A1"/>
<path d="M160.404 45.0003H163.203V26.2475H160.404V45.0003ZM185.614 33.0032L182.406 41.1329H182.31L178.98 33.0032H175.965L180.96 44.3658L178.111 50.6866H181.03L188.727 33.0037L185.614 33.0032ZM169.74 42.8702C168.825 42.8702 167.546 42.4113 167.546 41.2776C167.546 39.8303 169.139 39.2754 170.513 39.2754C171.743 39.2754 172.323 39.5403 173.07 39.9024C172.853 41.6397 171.357 42.8701 169.74 42.8701L169.74 42.8702ZM170.079 32.593C168.053 32.593 165.954 33.4859 165.086 35.4641L167.57 36.5012C168.101 35.4641 169.089 35.1267 170.127 35.1267C171.575 35.1267 173.046 35.9944 173.07 37.5389V37.7317C172.563 37.4422 171.477 37.0081 170.151 37.0081C167.472 37.0081 164.747 38.4792 164.747 41.2296C164.747 43.7385 166.943 45.3551 169.403 45.3551C171.284 45.3551 172.323 44.5107 172.973 43.5212H173.07V44.9695H175.773V37.7796C175.773 34.4504 173.286 32.593 170.079 32.593V32.593ZM152.781 35.2859H148.8V28.8584H152.781C154.874 28.8584 156.061 30.5905 156.061 32.0721C156.061 33.5253 154.873 35.2859 152.781 35.2859ZM152.709 26.248H146.002V45.0007H148.8V37.8964H152.709C155.811 37.8964 158.861 35.6511 158.861 32.0728C158.861 28.4952 155.811 26.2487 152.709 26.2487L152.709 26.248ZM116.138 42.8733C114.205 42.8733 112.586 41.2538 112.586 39.0314C112.586 36.7832 114.205 35.1408 116.138 35.1408C118.047 35.1408 119.546 36.7833 119.546 39.0314C119.546 41.2538 118.047 42.8733 116.138 42.8733ZM119.352 34.0529H119.255C118.627 33.304 117.419 32.6273 115.897 32.6273C112.707 32.6273 109.783 35.4309 109.783 39.0314C109.783 42.6074 112.707 45.3864 115.897 45.3864C117.419 45.3864 118.627 44.7096 119.255 43.9368H119.352V44.8543C119.352 47.2959 118.047 48.6001 115.945 48.6001C114.23 48.6001 113.167 47.3679 112.731 46.329L110.291 47.3438C110.991 49.0347 112.851 51.1137 115.945 51.1137C119.232 51.1137 122.011 49.18 122.011 44.4675V33.0138H119.352L119.352 34.0529ZM123.945 44.9997H126.747V26.2469H123.945V44.9997ZM130.879 38.8135C130.807 36.3485 132.789 35.0922 134.214 35.0922C135.326 35.0922 136.268 35.6482 136.583 36.4451L130.879 38.8135ZM139.579 36.6866C139.047 35.2616 137.428 32.6273 134.118 32.6273C130.831 32.6273 128.1 35.2129 128.1 39.0069C128.1 42.5834 130.807 45.3865 134.431 45.3865C137.355 45.3865 139.047 43.5988 139.748 42.5593L137.573 41.1092C136.848 42.1727 135.858 42.8734 134.431 42.8734C133.006 42.8734 131.991 42.2208 131.339 40.94L139.869 37.4121L139.579 36.6866ZM71.618 34.5848V37.2913H78.0941C77.9007 38.8136 77.3933 39.925 76.6199 40.6985C75.6771 41.6406 74.203 42.68 71.6179 42.68C67.6305 42.68 64.5134 39.4662 64.5134 35.479C64.5134 31.4917 67.6305 28.2775 71.6179 28.2775C73.7686 28.2775 75.339 29.1235 76.499 30.2109L78.4086 28.3014C76.7891 26.7551 74.6387 25.571 71.6179 25.571C66.1557 25.571 61.5645 30.0175 61.5645 35.479C61.5645 40.9399 66.1557 45.3865 71.6179 45.3865C74.5656 45.3865 76.7892 44.4197 78.5288 42.6075C80.3171 40.8192 80.8731 38.3061 80.8731 36.2759C80.8731 35.6483 80.8243 35.0684 80.7277 34.5848H71.618ZM88.2366 42.8733C86.3029 42.8733 84.6354 41.2784 84.6354 39.0069C84.6354 36.7112 86.3029 35.1409 88.2366 35.1409C90.1694 35.1409 91.8369 36.7112 91.8369 39.0069C91.8369 41.2784 90.1694 42.8733 88.2366 42.8733ZM88.2366 32.6273C84.7074 32.6273 81.8322 35.3096 81.8322 39.0069C81.8322 42.68 84.7074 45.3865 88.2366 45.3865C91.7644 45.3865 94.6401 42.68 94.6401 39.0069C94.6401 35.3096 91.7644 32.6273 88.2366 32.6273ZM102.206 42.8733C100.273 42.8733 98.6054 41.2784 98.6054 39.0069C98.6054 36.7112 100.274 35.1409 102.206 35.1409C104.139 35.1409 105.806 36.7112 105.806 39.0069C105.806 41.2784 104.139 42.8733 102.206 42.8733ZM102.206 32.6273C98.678 32.6273 95.8028 35.3096 95.8028 39.0069C95.8028 42.68 98.678 45.3865 102.206 45.3865C105.735 45.3865 108.61 42.68 108.61 39.0069C108.61 35.3096 105.735 32.6273 102.206 32.6273Z" fill="white"/>
<path d="M31.0748 29.1367L15.1064 46.086C15.107 46.0895 15.1082 46.0924 15.1088 46.096C15.5985 47.9366 17.2796 49.2917 19.2747 49.2917C20.0722 49.2917 20.821 49.0761 21.4632 48.6976L21.5142 48.6677L39.4895 38.2952L31.0756 29.1365" fill="#EB3131"/>
<path d="M47.231 26.2508L47.2157 26.2404L39.4551 21.7415L30.7119 29.5216L39.4855 38.294L47.2051 33.8399C48.5585 33.1093 49.4773 31.6825 49.4773 30.0371C49.4773 28.4036 48.5708 26.984 47.2308 26.2509" fill="#F6B60B"/>
<path d="M15.1045 13.9163C15.0085 14.2703 14.958 14.641 14.958 15.0261V44.9772C14.958 45.3615 15.0079 45.7335 15.1051 46.0863L31.6247 29.57L15.1051 13.9167" fill="#5778C5"/>
<path d="M31.1931 30.0016L39.4589 21.7383L21.5038 11.3282C20.8511 10.9373 20.0894 10.7117 19.2743 10.7117C17.2792 10.7117 15.5959 12.0693 15.1061 13.912C15.1055 13.9138 15.1055 13.915 15.1055 13.9166L31.1931 30.0019" fill="#3BAD49"/>
<path d="M71.0929 14.6723H66.7171V15.7551H69.9961C69.907 16.6388 69.5554 17.3325 68.9625 17.8364C68.3695 18.3404 67.6125 18.5934 66.7172 18.5934C65.7351 18.5934 64.9031 18.2513 64.2212 17.5717C63.5531 16.8779 63.2134 16.0201 63.2134 14.9865C63.2134 13.953 63.5531 13.0952 64.2212 12.4015C64.9031 11.7218 65.7352 11.382 66.7172 11.382C67.2212 11.382 67.7016 11.4687 68.1421 11.6585C68.5828 11.8483 68.9366 12.1132 69.2132 12.4531L70.0453 11.621C69.6679 11.1921 69.1898 10.864 68.5967 10.6249C68.0038 10.3858 67.3851 10.2711 66.717 10.2711C65.407 10.2711 64.2961 10.7257 63.3891 11.6328C62.482 12.5421 62.0273 13.6624 62.0273 14.9865C62.0273 16.3107 62.482 17.4334 63.3891 18.3405C64.2961 19.2474 65.407 19.7022 66.717 19.7022C68.0928 19.7022 69.1897 19.2615 70.0335 18.3662C70.7764 17.621 71.156 16.6132 71.156 15.3523C71.156 15.139 71.1302 14.9116 71.0927 14.6725L71.0929 14.6723ZM72.788 10.4724V19.5005H78.0589V18.3919H73.9481V15.528H77.6559V14.4451H73.9481V11.5834H78.0589V10.4724L72.788 10.4724ZM85.45 11.5835V10.4724H79.2461V11.5835H81.7681V19.5005H82.9282V11.5835H85.45ZM91.0666 10.4724H89.9065V19.5005H91.0666V10.4724ZM98.724 11.5835V10.4724H92.5203V11.5835H95.042V19.5005H96.2021V11.5835H98.724ZM110.431 11.6468C109.536 10.7256 108.439 10.271 107.129 10.271C105.816 10.271 104.719 10.7256 103.824 11.6327C102.929 12.528 102.488 13.6506 102.488 14.9865C102.488 16.3223 102.929 17.4451 103.824 18.3404C104.719 19.2473 105.816 19.7022 107.129 19.7022C108.427 19.7022 109.535 19.2474 110.431 18.3404C111.326 17.4451 111.767 16.3224 111.767 14.9865C111.767 13.6623 111.326 12.5419 110.431 11.6468ZM104.656 12.4014C105.324 11.7218 106.144 11.3819 107.129 11.3819C108.111 11.3819 108.931 11.7218 109.587 12.4014C110.255 13.0693 110.583 13.9411 110.583 14.9864C110.583 16.0342 110.255 16.9036 109.587 17.5716C108.931 18.2512 108.111 18.5934 107.129 18.5934C106.144 18.5934 105.324 18.2512 104.656 17.5716C104.002 16.8896 103.674 16.0342 103.674 14.9864C103.674 13.9411 104.002 13.0834 104.656 12.4014ZM114.523 13.878L114.474 12.1365H114.523L119.112 19.5004H120.324V10.4723H119.164V15.755L119.213 17.4966H119.164L114.776 10.4723H113.363V19.5004H114.523V13.878Z" fill="white" stroke="white" stroke-width="0.26666" stroke-miterlimit="10"/>
</g>
<defs>
<clipPath id="clip0_75_176">
<rect width="202.501" height="60" fill="white"/>
</clipPath>
</defs>
</svg>
