<svg width="203" height="60" viewBox="0 0 203 60" fill="none" xmlns="http://www.w3.org/2000/svg">
<g clip-path="url(#clip0_75_144)">
<path d="M195.296 60H7.0935C3.183 60 0 56.808 0 52.9005V7.089C0 3.18 3.183 0 7.0935 0H195.296C199.205 0 202.5 3.18 202.5 7.089V52.9005C202.5 56.808 199.205 60 195.296 60Z" fill="#A6A6A6"/>
<path d="M201.048 52.902C201.048 56.076 198.477 58.647 195.297 58.647H7.09346C3.91496 58.647 1.33496 56.076 1.33496 52.902V7.08746C1.33496 3.91496 3.91496 1.33496 7.09346 1.33496H195.295C198.477 1.33496 201.046 3.91496 201.046 7.08746L201.048 52.902Z" fill="black"/>
<path d="M45.1916 29.6761C45.1481 24.8416 49.1501 22.4896 49.3331 22.3801C47.0666 19.0756 43.5536 18.6241 42.3191 18.5881C39.3686 18.2776 36.5066 20.3536 35.0036 20.3536C33.4706 20.3536 31.1561 18.6181 28.6616 18.6691C25.4516 18.7186 22.4486 20.5771 20.8016 23.4631C17.4026 29.3476 19.9376 37.995 23.1941 42.7515C24.8231 45.081 26.7266 47.682 29.2181 47.5905C31.6556 47.49 32.5661 46.0366 35.5076 46.0366C38.4221 46.0366 39.2771 47.5906 41.8181 47.5321C44.4341 47.4901 46.0811 45.1921 47.6531 42.8416C49.5356 40.1716 50.2916 37.5421 50.3216 37.4071C50.2601 37.3861 45.2411 35.4706 45.1916 29.6761Z" fill="white"/>
<path d="M40.3916 15.4589C41.7026 13.8194 42.5996 11.5889 42.3506 9.32544C40.4531 9.40944 38.0801 10.6379 36.7136 12.2414C35.5046 13.6544 34.4246 15.9704 34.7036 18.1484C36.8351 18.3074 39.0236 17.0729 40.3916 15.4589Z" fill="white"/>
<path d="M80.4677 47.2559H77.0612L75.1952 41.3924H68.7092L66.9317 47.2559H63.6152L70.0412 27.2939H74.0102L80.4677 47.2559ZM74.6327 38.9324L72.9452 33.7199C72.7667 33.1874 72.4322 31.9334 71.9387 29.9594H71.8787C71.6822 30.8084 71.3657 32.0624 70.9307 33.7199L69.2732 38.9324H74.6327V38.9324Z" fill="white"/>
<path d="M96.9933 39.8819C96.9933 42.3299 96.3318 44.2649 95.0088 45.6854C93.8238 46.9499 92.3523 47.5814 90.5958 47.5814C88.6998 47.5814 87.3378 46.9004 86.5083 45.5384H86.4483V53.1209H83.2503V37.6004C83.2503 36.0614 83.2098 34.4819 83.1318 32.8619H85.9443L86.1228 35.1434H86.1828C87.2493 33.4244 88.8678 32.5664 91.0398 32.5664C92.7378 32.5664 94.1553 33.2369 95.2893 34.5794C96.4263 35.9234 96.9933 37.6904 96.9933 39.8819ZM93.7353 39.9989C93.7353 38.5979 93.4203 37.4429 92.7873 36.5339C92.0958 35.5859 91.1673 35.1119 90.0033 35.1119C89.2143 35.1119 88.4973 35.3759 87.8568 35.8964C87.2148 36.4214 86.7948 37.1069 86.5983 37.9559C86.4993 38.3519 86.4498 38.6759 86.4498 38.9309V41.3309C86.4498 42.3779 86.7708 43.2614 87.4128 43.9829C88.0548 44.7044 88.8888 45.0644 89.9148 45.0644C91.1193 45.0644 92.0568 44.5994 92.7273 43.6724C93.3993 42.7439 93.7353 41.5199 93.7353 39.9989Z" fill="white"/>
<path d="M113.548 39.8819C113.548 42.3299 112.887 44.2649 111.562 45.6854C110.379 46.9499 108.907 47.5814 107.151 47.5814C105.255 47.5814 103.893 46.9004 103.065 45.5384H103.005V53.1209H99.807V37.6004C99.807 36.0614 99.7665 34.4819 99.6885 32.8619H102.501L102.679 35.1434H102.739C103.804 33.4244 105.423 32.5664 107.596 32.5664C109.293 32.5664 110.71 33.2369 111.847 34.5794C112.98 35.9234 113.548 37.6904 113.548 39.8819ZM110.29 39.9989C110.29 38.5979 109.974 37.4429 109.341 36.5339C108.649 35.5859 107.724 35.1119 106.558 35.1119C105.768 35.1119 105.052 35.3759 104.41 35.8964C103.768 36.4214 103.35 37.1069 103.153 37.9559C103.056 38.3519 103.005 38.6759 103.005 38.9309V41.3309C103.005 42.3779 103.326 43.2614 103.965 43.9829C104.607 44.7029 105.441 45.0644 106.47 45.0644C107.674 45.0644 108.612 44.5994 109.282 43.6724C109.954 42.7439 110.29 41.5199 110.29 39.9989Z" fill="white"/>
<path d="M132.059 41.658C132.059 43.356 131.469 44.7375 130.286 45.804C128.985 46.9695 127.175 47.5515 124.848 47.5515C122.7 47.5515 120.978 47.1375 119.675 46.308L120.416 43.6425C121.82 44.4915 123.36 44.9175 125.039 44.9175C126.243 44.9175 127.181 44.6445 127.854 44.1015C128.525 43.5585 128.859 42.8295 128.859 41.9205C128.859 41.1105 128.583 40.428 128.03 39.8745C127.479 39.321 126.56 38.8065 125.276 38.331C121.781 37.0275 120.035 35.118 120.035 32.607C120.035 30.966 120.647 29.6205 121.872 28.5735C123.093 27.525 124.722 27.0015 126.759 27.0015C128.576 27.0015 130.085 27.318 131.289 27.9495L130.49 30.5565C129.365 29.9445 128.093 29.6385 126.669 29.6385C125.544 29.6385 124.665 29.916 124.035 30.468C123.503 30.9615 123.236 31.563 123.236 32.2755C123.236 33.0645 123.54 33.717 124.152 34.23C124.685 34.704 125.652 35.217 127.056 35.7705C128.774 36.462 130.035 37.2705 130.847 38.1975C131.655 39.1215 132.059 40.278 132.059 41.658Z" fill="white"/>
<path d="M142.632 35.2619H139.107V42.2504C139.107 44.0279 139.728 44.9159 140.973 44.9159C141.545 44.9159 142.019 44.8664 142.394 44.7674L142.482 47.1959C141.852 47.4314 141.023 47.5499 139.995 47.5499C138.732 47.5499 137.745 47.1644 137.033 46.3949C136.323 45.6239 135.966 44.3309 135.966 42.5144V35.2589H133.866V32.8589H135.966V30.2234L139.107 29.2754V32.8589H142.632V35.2619Z" fill="white"/>
<path d="M158.537 39.9404C158.537 42.1529 157.904 43.9694 156.641 45.3899C155.316 46.8524 153.558 47.5814 151.367 47.5814C149.255 47.5814 147.573 46.8809 146.319 45.4799C145.065 44.0789 144.438 42.3104 144.438 40.1789C144.438 37.9484 145.083 36.1214 146.378 34.7009C147.669 33.2789 149.412 32.5679 151.604 32.5679C153.716 32.5679 155.415 33.2684 156.698 34.6709C157.925 36.0314 158.537 37.7879 158.537 39.9404ZM155.219 40.0439C155.219 38.7164 154.935 37.5779 154.361 36.6284C153.69 35.4794 152.732 34.9064 151.49 34.9064C150.204 34.9064 149.228 35.4809 148.557 36.6284C147.983 37.5794 147.699 38.7359 147.699 40.1039C147.699 41.4314 147.983 42.5699 148.557 43.5179C149.249 44.6669 150.215 45.2399 151.461 45.2399C152.682 45.2399 153.641 44.6549 154.332 43.4879C154.922 42.5204 155.219 41.3699 155.219 40.0439Z" fill="white"/>
<path d="M168.931 35.6744C168.615 35.6159 168.277 35.5859 167.923 35.5859C166.798 35.5859 165.928 36.0104 165.316 36.8609C164.784 37.6109 164.517 38.5589 164.517 39.7034V47.2559H161.32L161.35 37.3949C161.35 35.7359 161.31 34.2254 161.23 32.8634H164.016L164.133 35.6174H164.221C164.559 34.6709 165.091 33.9089 165.82 33.3374C166.533 32.8229 167.302 32.5664 168.132 32.5664C168.427 32.5664 168.694 32.5874 168.931 32.6249V35.6744Z" fill="white"/>
<path d="M183.234 39.3781C183.234 39.9511 183.197 40.434 183.117 40.8285H173.523C173.561 42.2505 174.024 43.338 174.915 44.088C175.724 44.7585 176.769 45.0945 178.053 45.0945C179.474 45.0945 180.77 44.868 181.935 44.4135L182.436 46.6336C181.074 47.2276 179.466 47.523 177.611 47.523C175.379 47.523 173.627 46.866 172.352 45.5535C171.08 44.241 170.442 42.4785 170.442 40.2675C170.442 38.097 171.035 36.2896 172.221 34.8481C173.463 33.3091 175.142 32.5396 177.254 32.5396C179.328 32.5396 180.899 33.3091 181.965 34.8481C182.81 36.0706 183.234 37.5826 183.234 39.3781ZM180.185 38.5485C180.206 37.6005 179.997 36.7815 179.564 36.09C179.01 35.2005 178.16 34.7565 177.015 34.7565C175.97 34.7565 175.119 35.1901 174.47 36.0601C173.937 36.7516 173.621 37.581 173.523 38.547H180.185V38.5485Z" fill="white"/>
<path d="M73.5747 15.0135C73.5747 16.779 73.0452 18.108 71.9877 19.0005C71.0082 19.824 69.6162 20.2365 67.8132 20.2365C66.9192 20.2365 66.1542 20.1975 65.5137 20.1195V10.473C66.3492 10.338 67.2492 10.269 68.2212 10.269C69.9387 10.269 71.2332 10.6425 72.1062 11.3895C73.0842 12.234 73.5747 13.4415 73.5747 15.0135ZM71.9172 15.057C71.9172 13.9125 71.6142 13.035 71.0082 12.423C70.4022 11.8125 69.5172 11.5065 68.3517 11.5065C67.8567 11.5065 67.4352 11.5395 67.0857 11.6085V18.942C67.2792 18.972 67.6332 18.9855 68.1477 18.9855C69.3507 18.9855 70.2792 18.651 70.9332 17.982C71.5872 17.313 71.9172 16.338 71.9172 15.057Z" fill="white"/>
<path d="M82.363 16.5556C82.363 17.6431 82.0525 18.5341 81.4315 19.2331C80.7805 19.9516 79.918 20.3101 78.841 20.3101C77.803 20.3101 76.9765 19.9666 76.36 19.2766C75.745 18.5881 75.4375 17.7196 75.4375 16.6726C75.4375 15.5776 75.754 14.6791 76.39 13.9816C77.026 13.2841 77.881 12.9346 78.958 12.9346C79.996 12.9346 80.83 13.2781 81.4615 13.9666C82.0615 14.6356 82.363 15.4996 82.363 16.5556ZM80.7325 16.6066C80.7325 15.9541 80.5915 15.3946 80.311 14.9281C79.981 14.3641 79.5115 14.0821 78.901 14.0821C78.2695 14.0821 77.7895 14.3641 77.4595 14.9281C77.1775 15.3946 77.038 15.9631 77.038 16.6351C77.038 17.2876 77.179 17.8471 77.4595 18.3136C77.8 18.8776 78.274 19.1596 78.886 19.1596C79.486 19.1596 79.957 18.8731 80.296 18.2986C80.587 17.8231 80.7325 17.2591 80.7325 16.6066Z" fill="white"/>
<path d="M94.1473 13.0784L91.9348 20.1494H90.4948L89.5783 17.0789C89.3458 16.3124 89.1568 15.5504 89.0098 14.7944H88.9813C88.8448 15.5714 88.6558 16.3319 88.4128 17.0789L87.4393 20.1494H85.9828L83.9023 13.0784H85.5178L86.3173 16.4399C86.5108 17.2349 86.6698 17.9924 86.7973 18.7094H86.8258C86.9428 18.1184 87.1363 17.3654 87.4093 16.4549L88.4128 13.0799H89.6938L90.6553 16.3829C90.8878 17.1884 91.0768 17.9639 91.2223 18.7109H91.2658C91.3723 17.9834 91.5328 17.2079 91.7458 16.3829L92.6038 13.0799H94.1473V13.0784Z" fill="white"/>
<path d="M102.297 20.1494H100.725V16.0994C100.725 14.8514 100.251 14.2274 99.2996 14.2274C98.8331 14.2274 98.4566 14.3984 98.1641 14.7419C97.8746 15.0854 97.7276 15.4904 97.7276 15.9539V20.1479H96.1556V15.0989C96.1556 14.4779 96.1361 13.8044 96.0986 13.0754H97.4801L97.5536 14.1809H97.5971C97.7801 13.8374 98.0531 13.5539 98.4116 13.3274C98.8376 13.0634 99.3146 12.9299 99.8366 12.9299C100.497 12.9299 101.046 13.1429 101.482 13.5704C102.025 14.0939 102.297 14.8754 102.297 15.9134V20.1494V20.1494Z" fill="white"/>
<path d="M106.632 20.1495H105.062V9.83398H106.632V20.1495Z" fill="white"/>
<path d="M115.886 16.5556C115.886 17.6431 115.576 18.5341 114.955 19.2331C114.304 19.9516 113.44 20.3101 112.364 20.3101C111.325 20.3101 110.498 19.9666 109.883 19.2766C109.268 18.5881 108.961 17.7196 108.961 16.6726C108.961 15.5776 109.277 14.6791 109.913 13.9816C110.549 13.2841 111.404 12.9346 112.48 12.9346C113.519 12.9346 114.352 13.2781 114.985 13.9666C115.585 14.6356 115.886 15.4996 115.886 16.5556ZM114.254 16.6066C114.254 15.9541 114.113 15.3946 113.833 14.9281C113.504 14.3641 113.033 14.0821 112.424 14.0821C111.791 14.0821 111.311 14.3641 110.983 14.9281C110.701 15.3946 110.561 15.9631 110.561 16.6351C110.561 17.2876 110.702 17.8471 110.983 18.3136C111.323 18.8776 111.797 19.1596 112.409 19.1596C113.009 19.1596 113.479 18.8731 113.818 18.2986C114.11 17.8231 114.254 17.2591 114.254 16.6066Z" fill="white"/>
<path d="M123.494 20.1496H122.083L121.966 19.3351H121.922C121.439 19.9846 120.751 20.3101 119.857 20.3101C119.189 20.3101 118.649 20.0956 118.243 19.6696C117.874 19.2826 117.689 18.8011 117.689 18.2296C117.689 17.3656 118.049 16.7071 118.774 16.2511C119.497 15.7951 120.514 15.5716 121.823 15.5821V15.4501C121.823 14.5186 121.334 14.0536 120.355 14.0536C119.657 14.0536 119.042 14.2291 118.511 14.5771L118.192 13.5451C118.849 13.1386 119.66 12.9346 120.617 12.9346C122.465 12.9346 123.392 13.9096 123.392 15.8596V18.4636C123.392 19.1701 123.427 19.7326 123.494 20.1496ZM121.862 17.7196V16.6291C120.128 16.5991 119.261 17.0746 119.261 18.0541C119.261 18.4231 119.36 18.6991 119.563 18.8836C119.765 19.0681 120.023 19.1596 120.331 19.1596C120.676 19.1596 120.998 19.0501 121.292 18.8326C121.588 18.6136 121.769 18.3361 121.837 17.9956C121.853 17.9191 121.862 17.8261 121.862 17.7196Z" fill="white"/>
<path d="M132.427 20.1495H131.032L130.958 19.014H130.915C130.469 19.878 129.71 20.31 128.644 20.31C127.792 20.31 127.082 19.9755 126.52 19.3065C125.957 18.6375 125.677 17.769 125.677 16.7025C125.677 15.558 125.981 14.631 126.593 13.923C127.186 13.263 127.912 12.933 128.776 12.933C129.725 12.933 130.39 13.2525 130.768 13.893H130.798V9.83398H132.371V18.2445C132.371 18.933 132.389 19.5675 132.427 20.1495ZM130.798 17.1675V15.9885C130.798 15.7845 130.783 15.6195 130.754 15.4935C130.666 15.1155 130.475 14.7975 130.186 14.541C129.893 14.2845 129.541 14.1555 129.134 14.1555C128.548 14.1555 128.089 14.388 127.751 14.8545C127.417 15.321 127.247 15.9165 127.247 16.644C127.247 17.343 127.408 17.91 127.73 18.3465C128.071 18.8115 128.53 19.044 129.104 19.044C129.62 19.044 130.033 18.8505 130.346 18.462C130.649 18.1035 130.798 17.6715 130.798 17.1675Z" fill="white"/>
<path d="M145.872 16.5556C145.872 17.6431 145.561 18.5341 144.94 19.2331C144.289 19.9516 143.428 20.3101 142.35 20.3101C141.313 20.3101 140.487 19.9666 139.869 19.2766C139.254 18.5881 138.946 17.7196 138.946 16.6726C138.946 15.5776 139.263 14.6791 139.899 13.9816C140.535 13.2841 141.39 12.9346 142.468 12.9346C143.505 12.9346 144.34 13.2781 144.97 13.9666C145.57 14.6356 145.872 15.4996 145.872 16.5556ZM144.243 16.6066C144.243 15.9541 144.102 15.3946 143.821 14.9281C143.49 14.3641 143.022 14.0821 142.41 14.0821C141.78 14.0821 141.3 14.3641 140.968 14.9281C140.686 15.3946 140.547 15.9631 140.547 16.6351C140.547 17.2876 140.688 17.8471 140.968 18.3136C141.309 18.8776 141.783 19.1596 142.395 19.1596C142.995 19.1596 143.467 18.8731 143.806 18.2986C144.096 17.8231 144.243 17.2591 144.243 16.6066Z" fill="white"/>
<path d="M154.324 20.1494H152.754V16.0994C152.754 14.8514 152.28 14.2274 151.327 14.2274C150.861 14.2274 150.484 14.3984 150.193 14.7419C149.902 15.0854 149.757 15.4904 149.757 15.9539V20.1479H148.183V15.0989C148.183 14.4779 148.165 13.8044 148.128 13.0754H149.508L149.581 14.1809H149.625C149.809 13.8374 150.082 13.5539 150.439 13.3274C150.867 13.0634 151.342 12.9299 151.866 12.9299C152.524 12.9299 153.073 13.1429 153.51 13.5704C154.054 14.0939 154.324 14.8754 154.324 15.9134V20.1494V20.1494Z" fill="white"/>
<path d="M164.904 14.2559H163.173V17.6909C163.173 18.5639 163.481 19.0004 164.09 19.0004C164.372 19.0004 164.606 18.9764 164.79 18.9269L164.831 20.1194C164.52 20.2364 164.112 20.2949 163.61 20.2949C162.989 20.2949 162.506 20.1059 162.156 19.7279C161.805 19.3499 161.631 18.7139 161.631 17.8214V14.2559H160.598V13.0784H161.631V11.7824L163.172 11.3174V13.0769H164.903V14.2559H164.904Z" fill="white"/>
<path d="M173.226 20.1495H171.652V16.1295C171.652 14.862 171.178 14.2275 170.229 14.2275C169.5 14.2275 169.002 14.595 168.729 15.33C168.682 15.4845 168.655 15.6735 168.655 15.8955V20.148H167.085V9.83398H168.655V14.0955H168.685C169.18 13.32 169.89 12.933 170.809 12.933C171.46 12.933 171.999 13.146 172.426 13.5735C172.959 14.106 173.226 14.898 173.226 15.945V20.1495V20.1495Z" fill="white"/>
<path d="M181.81 16.2794C181.81 16.5614 181.789 16.7984 181.751 16.9919H177.037C177.058 17.6909 177.283 18.2234 177.719 18.5924C178.118 18.9224 178.633 19.0874 179.263 19.0874C179.96 19.0874 180.596 18.9764 181.169 18.7529L181.415 19.8449C180.745 20.1359 179.956 20.2814 179.042 20.2814C177.947 20.2814 177.085 19.9589 176.461 19.3139C175.834 18.6689 175.523 17.8034 175.523 16.7174C175.523 15.6509 175.813 14.7629 176.396 14.0549C177.005 13.2989 177.829 12.9209 178.868 12.9209C179.885 12.9209 180.658 13.2989 181.18 14.0549C181.601 14.6549 181.81 15.3974 181.81 16.2794ZM180.31 15.8729C180.322 15.4064 180.218 15.0044 180.005 14.6654C179.732 14.2289 179.317 14.0099 178.754 14.0099C178.241 14.0099 177.823 14.2229 177.503 14.6504C177.242 14.9909 177.088 15.3974 177.037 15.8729H180.31Z" fill="white"/>
</g>
<defs>
<clipPath id="clip0_75_144">
<rect width="202.5" height="60" fill="white"/>
</clipPath>
</defs>
</svg>
