<svg width="366" height="420" viewBox="0 0 366 420" fill="none" xmlns="http://www.w3.org/2000/svg">
<path d="M196.818 420C194.213 420 191.666 419.225 189.501 417.774C187.335 416.322 185.648 414.26 184.652 411.847C183.657 409.434 183.398 406.779 183.908 404.219C184.418 401.658 185.674 399.307 187.518 397.463L302.826 281.888C343.582 241.038 337.066 197.242 313.788 173.852C290.51 150.462 246.893 143.835 206.117 184.511C204.887 185.735 203.429 186.704 201.825 187.363C200.221 188.022 198.503 188.358 196.77 188.352C195.037 188.345 193.321 187.997 191.722 187.326C190.123 186.656 188.672 185.676 187.45 184.443C186.229 183.21 185.262 181.748 184.605 180.14C183.947 178.533 183.612 176.811 183.618 175.074C183.625 173.336 183.972 171.617 184.641 170.014C185.31 168.412 186.288 166.957 187.518 165.733C238.714 114.65 299.172 121.743 332.426 155.152C341.155 163.873 347.997 174.304 352.524 185.793C357.052 197.283 359.168 209.585 358.739 221.931C357.966 249.7 345.07 276.908 321.425 300.589L206.117 416.163C204.896 417.385 203.445 418.353 201.849 419.011C200.253 419.669 198.544 420.006 196.818 420Z" fill="#636466"/>
<path d="M161.913 367.235C160.183 367.237 158.47 366.898 156.872 366.238C155.274 365.577 153.823 364.608 152.603 363.387L37.3273 248.634C13.7237 225.122 0.820824 198.127 0.0481996 170.554C-0.355386 158.299 1.77904 146.093 6.31848 134.695C10.8579 123.298 17.7051 112.954 26.4333 104.308C59.6369 71.1363 120.037 64.0941 171.185 114.832C172.434 116.041 173.43 117.484 174.115 119.079C174.8 120.674 175.16 122.389 175.175 124.123C175.19 125.858 174.858 127.578 174.2 129.184C173.542 130.79 172.571 132.25 171.342 133.479C170.113 134.709 168.652 135.682 167.042 136.345C165.432 137.007 163.707 137.344 161.965 137.336C160.224 137.329 158.501 136.977 156.898 136.302C155.294 135.626 153.84 134.64 152.622 133.4C111.886 93.0132 68.2323 99.6129 45.0536 122.837C21.8748 146.061 15.3075 189.545 56.0248 230.105L171.223 344.858C173.057 346.694 174.304 349.03 174.808 351.571C175.312 354.112 175.049 356.744 174.054 359.137C173.058 361.53 171.374 363.576 169.214 365.017C167.053 366.458 164.513 367.23 161.913 367.235Z" fill="#9F2063"/>
<path d="M338.743 120.303C353.313 120.303 365.125 108.491 365.125 93.9209C365.125 79.3506 353.313 67.5391 338.743 67.5391C324.173 67.5391 312.361 79.3506 312.361 93.9209C312.361 108.491 324.173 120.303 338.743 120.303Z" fill="#636466"/>
<path d="M56.984 52.7637C72.1371 52.7637 84.4211 40.9521 84.4211 26.3818C84.4211 11.8116 72.1371 0 56.984 0C41.8309 0 29.5469 11.8116 29.5469 26.3818C29.5469 40.9521 41.8309 52.7637 56.984 52.7637Z" fill="#9F2063"/>
</svg>
