<svg width="214" height="60" viewBox="0 0 214 60" fill="none" xmlns="http://www.w3.org/2000/svg">
<path d="M73.2643 15.6845C73.2765 15.5974 73.2683 15.5087 73.2406 15.4254C73.2128 15.342 73.1662 15.2661 73.1043 15.2037C73.0424 15.1413 72.9669 15.0941 72.8838 15.0656C72.8006 15.0372 72.712 15.0283 72.6249 15.0397H71.457V11.869H74.8708C76.1814 11.869 76.8261 12.482 76.8261 13.5337V13.9723C76.8233 14.1866 76.8038 14.4004 76.768 14.6117H76.8261C77.321 13.6535 78.0768 12.8548 79.0062 12.3077C79.9357 11.7607 81.0009 11.4877 82.0789 11.5203C85.3711 11.5203 87.2683 13.243 87.2683 17.18V22.9929C87.2591 23.0798 87.2695 23.1677 87.2987 23.25C87.3278 23.3324 87.3751 23.4072 87.4368 23.469C87.4986 23.5308 87.5735 23.578 87.6558 23.6072C87.7382 23.6364 87.8261 23.6468 87.913 23.6376H89.0756V26.7608H85.5508C84.1504 26.7608 83.5638 26.1742 83.5638 24.7738V17.9568C83.5638 16.1495 83.0988 14.9235 81.2281 14.9235C80.3197 14.9129 79.4337 15.2053 78.7101 15.7547C77.9866 16.3041 77.4668 17.0789 77.233 17.9568C77.0294 18.5991 76.9312 19.2701 76.9423 19.9438V26.7713H73.2432L73.2643 15.6845Z" fill="#9F2063"/>
<path d="M99.4012 17.4341H99.8715V17.3179C99.8715 15.2041 99.026 14.4008 97.1288 14.4008C96.4577 14.4008 95.1419 14.5752 95.1419 15.3943V16.1817H91.7017V14.5964C91.7017 11.8273 95.6122 11.5366 97.1553 11.5366C102.117 11.5366 103.576 14.1313 103.576 17.4553V22.9987C103.565 23.0862 103.574 23.1751 103.602 23.2586C103.631 23.3422 103.678 23.4181 103.74 23.4807C103.802 23.5434 103.878 23.5911 103.961 23.6202C104.044 23.6493 104.133 23.659 104.221 23.6487H105.383V26.7718H102.059C100.685 26.7718 100.162 26.0109 100.162 25.1336C100.162 24.7584 100.162 24.4942 100.162 24.4942H100.104C99.6853 25.3172 99.0399 26.0032 98.244 26.4714C97.4481 26.9396 96.5349 27.1703 95.6122 27.1365C92.9699 27.1365 90.5391 25.4719 90.5391 22.4967C90.5655 17.8146 96.9809 17.4341 99.4012 17.4341ZM96.5423 24.23C98.5292 24.23 99.9296 22.1162 99.9296 20.3247V19.9707H99.2849C97.3614 19.9707 94.2963 20.2349 94.2963 22.3064C94.2963 23.2999 95.0256 24.23 96.5423 24.23Z" fill="#9F2063"/>
<path d="M108.359 15.6847C108.371 15.5972 108.363 15.508 108.335 15.4241C108.307 15.3403 108.26 15.2641 108.197 15.2016C108.135 15.1391 108.059 15.092 107.975 15.0639C107.891 15.0359 107.802 15.0277 107.714 15.04H106.552V11.8693H109.96C111.276 11.8693 111.916 12.4823 111.916 13.5339V13.9725C111.916 14.2896 111.916 14.612 111.916 14.612H111.974C112.418 13.7069 113.102 12.9405 113.95 12.3957C114.799 11.8508 115.78 11.5482 116.788 11.5205C119.034 11.5205 120.487 12.5774 121.132 14.5803H121.19C121.679 13.6574 122.41 12.8851 123.305 12.3461C124.199 11.8071 125.224 11.5217 126.268 11.5205C129.36 11.5205 131.141 13.2697 131.141 17.1802V22.9932C131.131 23.0798 131.14 23.1676 131.169 23.25C131.197 23.3324 131.244 23.4073 131.305 23.4693C131.367 23.5312 131.441 23.5785 131.523 23.6077C131.606 23.6369 131.693 23.6472 131.78 23.6379H132.921V26.761H129.418C128.017 26.761 127.436 26.1745 127.436 24.7741V17.9042C127.436 16.2132 127.114 14.929 125.391 14.929C123.557 14.929 122.22 16.4774 121.835 18.3428C121.664 18.9604 121.586 19.5996 121.602 20.24V26.7769H117.903V17.8989C117.903 16.3136 117.665 14.9238 115.889 14.9238C114.019 14.9238 112.766 16.4721 112.301 18.3692C112.144 18.9786 112.064 19.6053 112.063 20.2347V26.7716H108.364L108.359 15.6847Z" fill="#9F2063"/>
<path d="M135.865 15.6847C135.877 15.5977 135.869 15.509 135.841 15.4256C135.813 15.3422 135.767 15.2664 135.705 15.204C135.643 15.1416 135.568 15.0943 135.484 15.0659C135.401 15.0374 135.313 15.0286 135.225 15.04H134.058V11.8693H137.471C138.782 11.8693 139.427 12.4823 139.427 13.5339V13.9725C139.427 14.2896 139.395 14.612 139.395 14.612H139.453C139.899 13.708 140.583 12.9426 141.431 12.3979C142.279 11.8533 143.26 11.5499 144.267 11.5205C146.513 11.5205 147.966 12.5774 148.616 14.5803H148.675C149.162 13.6574 149.892 12.885 150.786 12.3459C151.68 11.8068 152.704 11.5215 153.748 11.5205C156.844 11.5205 158.62 13.2697 158.62 17.1802V22.9932C158.611 23.0801 158.621 23.1679 158.65 23.2503C158.68 23.3327 158.727 23.4075 158.789 23.4693C158.85 23.5311 158.925 23.5783 159.008 23.6075C159.09 23.6366 159.178 23.647 159.265 23.6379H160.401V26.761H156.903C155.502 26.761 154.916 26.1745 154.916 24.7741V17.9042C154.916 16.2132 154.593 14.929 152.876 14.929C151.037 14.929 149.705 16.4774 149.314 18.3428C149.144 18.9604 149.066 19.5996 149.081 20.24V26.7769H145.382V17.8989C145.382 16.3136 145.15 14.9238 143.369 14.9238C141.503 14.9238 140.246 16.4721 139.781 18.3692C139.625 18.9788 139.547 19.6056 139.548 20.2347V26.7716H135.849L135.865 15.6847Z" fill="#9F2063"/>
<path d="M163.312 15.6846C163.324 15.5976 163.316 15.5089 163.288 15.4255C163.261 15.3422 163.214 15.2663 163.152 15.2039C163.09 15.1415 163.015 15.0942 162.932 15.0658C162.848 15.0374 162.76 15.0285 162.673 15.0399H161.505V11.8692H165.035C166.409 11.8692 166.99 12.4822 166.99 13.8245V20.6943C166.99 22.5069 167.455 23.7276 169.294 23.7276C171.979 23.7276 173.469 21.3655 173.469 18.7127V11.8904H177.168V22.9878C177.158 23.0744 177.168 23.1622 177.196 23.2446C177.225 23.327 177.271 23.402 177.333 23.4639C177.394 23.5258 177.469 23.5731 177.551 23.6023C177.633 23.6315 177.721 23.6418 177.808 23.6325H178.975V26.7557H175.562C174.278 26.7557 173.606 26.1427 173.606 25.091V24.6841C173.606 24.3301 173.638 24.013 173.638 24.013H173.58C173.102 24.96 172.366 25.7526 171.458 26.2996C170.549 26.8465 169.504 27.1256 168.443 27.1044C165.273 27.1044 163.307 25.5191 163.307 21.4447L163.312 15.6846Z" fill="#9F2063"/>
<path d="M187.261 11.5417C190.501 11.5417 191.552 13.349 191.552 13.349H191.61C191.61 13.349 191.579 12.9685 191.579 12.4718V9.82953C191.588 9.74371 191.578 9.65686 191.549 9.57551C191.52 9.49416 191.473 9.42044 191.412 9.3599C191.35 9.29936 191.276 9.25358 191.194 9.226C191.112 9.19841 191.025 9.18975 190.939 9.20067H189.771V6.02997H193.301C194.675 6.02997 195.288 6.64297 195.288 8.01166V22.9774C195.278 23.064 195.288 23.1518 195.316 23.2342C195.345 23.3166 195.392 23.3915 195.453 23.4534C195.515 23.5154 195.589 23.5626 195.671 23.5918C195.753 23.621 195.841 23.6314 195.928 23.6221H197.064V26.7452H193.65C192.308 26.7452 191.816 26.1005 191.816 25.2286V24.6737H191.758C191.758 24.6737 190.532 27.094 187.119 27.094C183.092 27.094 180.497 23.9233 180.497 19.3046C180.497 14.6014 183.324 11.5417 187.261 11.5417ZM191.669 19.2993C191.669 16.9953 190.474 14.723 187.969 14.723C185.93 14.723 184.238 16.3823 184.238 19.3311C184.238 22.1583 185.723 23.9973 187.911 23.9973C189.861 23.9973 191.669 22.5969 191.669 19.2993Z" fill="#9F2063"/>
<path d="M206.211 11.5412C210.471 11.5412 212.806 14.6644 212.806 18.6013C212.806 19.0399 212.717 19.97 212.717 19.97H202.433C202.504 21.0883 203.011 22.134 203.845 22.8822C204.679 23.6303 205.774 24.0211 206.893 23.9704C208.434 23.9075 209.907 23.3202 211.068 22.3057L212.611 24.874C210.958 26.325 208.833 27.1235 206.634 27.1199C201.704 27.1199 198.639 23.5582 198.639 19.3306C198.639 14.7489 201.73 11.5412 206.211 11.5412ZM209.012 17.4017C208.954 15.6261 207.728 14.4001 206.211 14.4001C205.342 14.3687 204.491 14.6567 203.819 15.2097C203.147 15.7627 202.701 16.5424 202.565 17.4017H209.012Z" fill="#9F2063"/>
<path d="M73.2962 36.1987C73.3054 36.1152 73.2957 36.0308 73.2679 35.9516C73.2401 35.8724 73.1948 35.8004 73.1355 35.7411C73.0761 35.6817 73.0042 35.6365 72.925 35.6086C72.8458 35.5808 72.7613 35.5712 72.6779 35.5804H71.4941V33.9158H73.4653C74.649 33.9158 75.188 34.4442 75.188 35.5011V36.1511C75.1964 36.4879 75.1858 36.8249 75.1563 37.1605H75.2144C75.6389 36.136 76.3475 35.2544 77.2567 34.6195C78.1659 33.9847 79.2377 33.6232 80.3457 33.5776C82.9879 33.5776 84.3196 34.7877 84.7424 37.1288H84.8005C85.2307 36.094 85.9531 35.207 86.8795 34.5763C87.8058 33.9456 88.8959 33.5985 90.0163 33.5776C93.4565 33.5776 94.7248 35.5804 94.7248 39.0735V45.8165C94.7083 45.9017 94.7131 45.9897 94.7387 46.0726C94.7643 46.1556 94.8099 46.2309 94.8716 46.2921C94.9332 46.3532 95.009 46.3982 95.0921 46.4231C95.1753 46.4479 95.2633 46.452 95.3484 46.4348H96.5057V48.0994H94.5029C93.2874 48.0994 92.7801 47.5709 92.7801 46.3766V39.5543C92.7801 37.245 92.3045 35.3267 89.7098 35.3267C87.5643 35.3267 85.7887 37.245 85.2233 39.3271C85.0348 39.9973 84.9493 40.6922 84.9696 41.3881V48.0994H83.0513V39.5543C83.0513 37.4141 82.7448 35.3267 80.0656 35.3267C77.751 35.3267 76.0335 37.3296 75.4417 39.5015C75.2795 40.1169 75.203 40.7518 75.2144 41.3881V48.0994H73.2962V36.1987Z" fill="#636466"/>
<path d="M106.91 39.3588H107.698V39.1897C107.698 36.2251 106.641 35.1841 104.03 35.1841C103.327 35.1841 101.272 35.3796 101.272 36.4259V37.3296H99.4645V35.9767C99.4645 34.0003 102.847 33.5776 104.088 33.5776C108.57 33.5776 109.642 35.9767 109.642 39.0206V45.8165C109.626 45.9012 109.631 45.9886 109.656 46.071C109.682 46.1534 109.727 46.2284 109.788 46.2894C109.849 46.3504 109.924 46.3955 110.006 46.4208C110.089 46.4462 110.176 46.451 110.261 46.4348H111.45V48.0994H109.473C108.263 48.0994 107.782 47.5709 107.782 46.4083C107.782 45.7848 107.809 45.3514 107.809 45.3514H107.756C107.367 46.2751 106.711 47.0615 105.872 47.6095C105.033 48.1576 104.049 48.4423 103.047 48.427C100.675 48.427 98.2227 47.0425 98.2227 44.2258C98.2227 39.5279 104.453 39.3588 106.91 39.3588ZM103.354 46.8047C106.065 46.8047 107.698 43.9828 107.698 41.5202V40.9072H106.863C104.638 40.9072 100.183 40.9653 100.183 44.1519C100.199 45.4466 101.24 46.8047 103.354 46.8047Z" fill="#636466"/>
<path d="M114.637 35.523H112.776V33.9377H114.663V30.0166H116.555V33.9377H120.106V35.523H116.555V42.7417C116.555 46.0709 118.669 46.4937 119.725 46.4937C119.942 46.4963 120.158 46.4768 120.37 46.4355V48.1583C120.099 48.195 119.825 48.2127 119.551 48.2111C117.918 48.2111 114.621 47.6827 114.621 42.9266L114.637 35.523Z" fill="#636466"/>
<path d="M123.911 36.1992C123.921 36.1157 123.911 36.0313 123.883 35.9521C123.855 35.8729 123.81 35.8009 123.751 35.7416C123.691 35.6822 123.619 35.6369 123.54 35.6091C123.461 35.5813 123.377 35.5717 123.293 35.5809H122.109V33.9163H124.08C125.264 33.9163 125.803 34.3971 125.803 35.5016V36.4634C125.803 36.8165 125.783 37.1693 125.745 37.5203H125.803C126.48 35.4065 128.06 33.7419 130.284 33.7419C130.54 33.7444 130.795 33.7728 131.045 33.8264V35.7183C130.813 35.6813 130.578 35.6619 130.343 35.6601C128.34 35.6601 126.844 37.2455 126.226 39.3276C125.955 40.2235 125.821 41.1554 125.83 42.0914V48.0681H123.911V36.1992Z" fill="#636466"/>
<path d="M134.263 36.1993C134.272 36.1156 134.261 36.0311 134.233 35.9519C134.204 35.8727 134.159 35.8009 134.099 35.7417C134.039 35.6824 133.967 35.6373 133.887 35.6095C133.808 35.5817 133.723 35.572 133.64 35.581H132.456V33.9164H134.459C135.669 33.9164 136.176 34.4449 136.176 35.6339V45.8171C136.16 45.9023 136.165 45.9903 136.19 46.0733C136.216 46.1562 136.261 46.2316 136.323 46.2927C136.385 46.3538 136.46 46.3988 136.544 46.4237C136.627 46.4486 136.715 46.4526 136.8 46.4354H137.984V48.1H135.981C134.771 48.1 134.263 47.5716 134.263 46.3773V36.1993ZM134.205 28.2726H136.065V30.6981H134.205V28.2726Z" fill="#636466"/>
<path d="M141.212 36.199C141.221 36.1156 141.212 36.0311 141.184 35.9519C141.156 35.8727 141.111 35.8008 141.051 35.7414C140.992 35.6821 140.92 35.6368 140.841 35.609C140.762 35.5812 140.677 35.5715 140.594 35.5808H139.41V33.9161H141.381C142.565 33.9161 143.104 34.4446 143.104 35.5015V36.1515C143.104 36.4923 143.085 36.8328 143.046 37.1714H143.104C143.529 36.1469 144.237 35.2653 145.146 34.6305C146.056 33.9956 147.127 33.6341 148.235 33.5885C150.878 33.5885 152.209 34.7986 152.632 37.1397H152.69C153.12 36.1049 153.843 35.2179 154.769 34.5872C155.695 33.9565 156.785 33.6095 157.906 33.5885C161.346 33.5885 162.614 35.5913 162.614 39.0844V45.8274C162.598 45.9126 162.603 46.0006 162.628 46.0835C162.654 46.1665 162.7 46.2418 162.761 46.303C162.823 46.3641 162.899 46.4091 162.982 46.434C163.065 46.4589 163.153 46.4629 163.238 46.4457H164.422V48.1103H162.403C161.188 48.1103 160.68 47.5819 160.68 46.3876V39.5547C160.68 37.2454 160.205 35.3271 157.61 35.3271C155.464 35.3271 153.689 37.2454 153.123 39.3275C152.935 39.9976 152.849 40.6926 152.87 41.3884V48.0997H150.952V39.5547C150.952 37.4145 150.645 35.3271 147.966 35.3271C145.651 35.3271 143.934 37.3299 143.342 39.5019C143.18 40.1173 143.103 40.7521 143.115 41.3884V48.0997H141.212V36.199Z" fill="#636466"/>
<path d="M173.596 33.5781C175.066 33.5865 176.501 34.0312 177.719 34.8557C178.937 35.6803 179.882 36.8477 180.436 38.2101C180.99 39.5724 181.127 41.0685 180.83 42.5088C180.533 43.9491 179.815 45.2689 178.767 46.3009C177.72 47.333 176.389 48.031 174.945 48.3065C173.5 48.5819 172.006 48.4225 170.652 47.8484C169.299 47.2743 168.145 46.3113 167.339 45.0814C166.533 43.8515 166.11 42.41 166.123 40.9394C166.121 39.9627 166.314 38.9953 166.69 38.0939C167.066 37.1925 167.618 36.3752 168.314 35.6897C169.01 35.0043 169.835 34.4645 170.742 34.1019C171.649 33.7393 172.619 33.5612 173.596 33.5781ZM173.627 46.7206C176.645 46.7206 179.123 44.2369 179.123 40.9394C179.123 39.4776 178.543 38.0757 177.509 37.042C176.475 36.0084 175.073 35.4277 173.612 35.4277C172.15 35.4277 170.748 36.0084 169.714 37.042C168.68 38.0757 168.1 39.4776 168.1 40.9394C168.075 41.684 168.199 42.426 168.465 43.1219C168.731 43.8179 169.133 44.4537 169.648 44.9922C170.163 45.5307 170.78 45.9609 171.463 46.2577C172.147 46.5545 172.882 46.7119 173.627 46.7206Z" fill="#636466"/>
<path d="M184.677 36.1994C184.686 36.1159 184.677 36.0315 184.649 35.9523C184.621 35.8731 184.576 35.8011 184.516 35.7418C184.457 35.6824 184.385 35.6372 184.306 35.6093C184.227 35.5815 184.142 35.5719 184.059 35.5811H182.875V33.9165H184.846C186.03 33.9165 186.569 34.4449 186.569 35.5018V36.1518C186.569 36.4926 186.549 36.8331 186.511 37.1717H186.569C187.05 36.0844 187.842 35.1638 188.845 34.5262C189.849 33.8886 191.019 33.5624 192.207 33.5888C195.732 33.5888 196.963 35.5917 196.963 39.0847V45.8277C196.947 45.9124 196.952 45.9998 196.977 46.0823C197.003 46.1647 197.048 46.2397 197.109 46.3007C197.17 46.3616 197.245 46.4068 197.327 46.4321C197.41 46.4574 197.497 46.4622 197.582 46.446H198.765V48.1107H196.763C195.553 48.1107 195.045 47.5822 195.045 46.3879V39.5868C195.045 37.3567 194.707 35.3592 191.97 35.3592C190.79 35.3705 189.647 35.7684 188.715 36.492C187.783 37.2155 187.115 38.2247 186.812 39.3648C186.648 39.9907 186.572 40.6362 186.585 41.2831V48.0789H184.666L184.677 36.1994Z" fill="#636466"/>
<path d="M202.274 52.3013C203.516 52.3013 204.362 51.2867 204.917 49.9867L205.762 48.042L200.774 36.2258C200.713 36.0184 200.58 35.8395 200.398 35.7213C200.217 35.6032 200 35.5535 199.785 35.5811H199.505V33.9165H200.377C201.646 33.9165 202.042 34.1966 202.549 35.4649L206.185 44.3217C206.387 44.8195 206.564 45.3275 206.713 45.8436H206.74C206.867 45.3264 207.028 44.8181 207.221 44.3217L210.714 35.4649C211.195 34.1966 211.617 33.9165 212.917 33.9165H213.789V35.5811H213.509C213.294 35.5501 213.075 35.5984 212.894 35.7171C212.712 35.8357 212.579 36.0166 212.521 36.2258L206.402 51.0594C205.667 52.8667 204.23 54.024 202.343 54.024C201.762 54.0225 201.188 53.8984 200.658 53.6598C200.128 53.4213 199.654 53.0736 199.268 52.6395L200.171 51.2285C200.431 51.5402 200.751 51.796 201.113 51.9804C201.474 52.1648 201.87 52.2739 202.274 52.3013Z" fill="#636466"/>
<path d="M28.1171 60C27.745 60 27.3812 59.8893 27.0718 59.6819C26.7625 59.4746 26.5214 59.1799 26.3792 58.8353C26.237 58.4906 26.1999 58.1113 26.2728 57.7455C26.3457 57.3798 26.5252 57.0439 26.7886 56.7804L43.2611 40.2697C49.0834 34.434 48.1526 28.1775 44.8271 24.836C41.5017 21.4946 35.2707 20.5478 29.4456 26.3586C29.2699 26.5335 29.0615 26.672 28.8324 26.7661C28.6033 26.8603 28.3579 26.9083 28.1103 26.9074C27.8626 26.9065 27.6176 26.8567 27.3892 26.7609C27.1608 26.6651 26.9534 26.5251 26.7789 26.3489C26.6045 26.1728 26.4663 25.964 26.3724 25.7343C26.2784 25.5047 26.2306 25.2587 26.2315 25.0105C26.2324 24.7623 26.282 24.5167 26.3776 24.2878C26.4732 24.0588 26.6129 23.8509 26.7886 23.6761C34.1023 16.3786 42.7391 17.3919 47.4897 22.1645C48.7367 23.4104 49.7141 24.9005 50.3609 26.5419C51.0077 28.1833 51.3099 29.9407 51.2488 31.7044C51.1383 35.6715 49.296 39.5583 45.9181 42.9412L29.4456 59.4519C29.2711 59.6264 29.0639 59.7646 28.8359 59.8587C28.6079 59.9528 28.3636 60.0008 28.1171 60Z" fill="#636466"/>
<path d="M23.1304 52.4622C22.8833 52.4625 22.6385 52.414 22.4103 52.3197C22.182 52.2253 21.9748 52.0869 21.8004 51.9124L5.33248 35.5192C1.96052 32.1602 0.117261 28.3038 0.00688566 24.3649C-0.0507694 22.6142 0.254148 20.8704 0.90264 19.2422C1.55113 17.614 2.5293 16.1363 3.77619 14.9011C8.51955 10.1623 17.1481 9.1563 24.4549 16.4046C24.6334 16.5773 24.7757 16.7835 24.8736 17.0113C24.9714 17.2392 25.0229 17.4841 25.025 17.7319C25.0271 17.9797 24.9798 18.2254 24.8858 18.4549C24.7918 18.6843 24.653 18.8929 24.4774 19.0685C24.3019 19.2441 24.0931 19.3832 23.8631 19.4778C23.6332 19.5724 23.3867 19.6205 23.1379 19.6195C22.8891 19.6184 22.6431 19.5682 22.4139 19.4716C22.1848 19.3751 21.9772 19.2342 21.8032 19.0571C15.9837 13.2876 9.74747 14.2304 6.43622 17.5481C3.12498 20.8658 2.18679 27.0779 8.00355 32.8721L24.4604 49.2654C24.7224 49.5277 24.9006 49.8614 24.9726 50.2244C25.0445 50.5874 25.007 50.9635 24.8648 51.3053C24.7226 51.6471 24.482 51.9394 24.1734 52.1452C23.8648 52.3511 23.5019 52.4614 23.1304 52.4622Z" fill="#9F2063"/>
<path d="M48.3919 17.1861C50.4733 17.1861 52.1607 15.4987 52.1607 13.4172C52.1607 11.3358 50.4733 9.64841 48.3919 9.64841C46.3104 9.64841 44.623 11.3358 44.623 13.4172C44.623 15.4987 46.3104 17.1861 48.3919 17.1861Z" fill="#636466"/>
<path d="M8.14029 7.53767C10.305 7.53767 12.0599 5.8503 12.0599 3.76883C12.0599 1.68736 10.305 0 8.14029 0C5.97556 0 4.2207 1.68736 4.2207 3.76883C4.2207 5.8503 5.97556 7.53767 8.14029 7.53767Z" fill="#9F2063"/>
</svg>
